<mxfile host="app.diagrams.net" agent="Mozilla/5.0 (Windows NT 10.0; Win64; x64) AppleWebKit/537.36 (KHTML, like Gecko) Chrome/129.0.0.0 Safari/537.36" version="24.7.17">
  <diagram name="Page-1" id="74e2e168-ea6b-b213-b513-2b3c1d86103e">
    <mxGraphModel dx="1221" dy="725" grid="1" gridSize="10" guides="1" tooltips="1" connect="1" arrows="1" fold="1" page="1" pageScale="1" pageWidth="1100" pageHeight="850" background="none" math="0" shadow="0">
      <root>
        <mxCell id="0" />
        <mxCell id="1" parent="0" />
        <mxCell id="77e6c97f196da883-1" value="Pool" style="swimlane;html=1;childLayout=stackLayout;startSize=20;rounded=0;shadow=0;labelBackgroundColor=none;strokeWidth=1;fontFamily=Verdana;fontSize=8;align=center;" parent="1" vertex="1">
          <mxGeometry x="50" y="80" width="1110" height="1530" as="geometry" />
        </mxCell>
        <mxCell id="77e6c97f196da883-2" value="用户" style="swimlane;html=1;startSize=20;" parent="77e6c97f196da883-1" vertex="1">
          <mxGeometry y="20" width="160" height="1510" as="geometry" />
        </mxCell>
        <mxCell id="77e6c97f196da883-8" value="MCN公司准备主播提现数据" style="rounded=1;whiteSpace=wrap;html=1;shadow=0;labelBackgroundColor=none;strokeWidth=1;fontFamily=Verdana;fontSize=8;align=center;" parent="77e6c97f196da883-2" vertex="1">
          <mxGeometry x="20" y="40" width="100" height="60" as="geometry" />
        </mxCell>
        <mxCell id="yzK9PIs7VhrDUYLbTPSg-47" value="主播" style="shape=umlActor;verticalLabelPosition=bottom;verticalAlign=top;html=1;outlineConnect=0;" vertex="1" parent="77e6c97f196da883-2">
          <mxGeometry x="50" y="500" width="30" height="60" as="geometry" />
        </mxCell>
        <mxCell id="yzK9PIs7VhrDUYLbTPSg-49" style="edgeStyle=orthogonalEdgeStyle;rounded=0;orthogonalLoop=1;jettySize=auto;html=1;entryX=0.5;entryY=1;entryDx=0;entryDy=0;" edge="1" parent="77e6c97f196da883-2" source="yzK9PIs7VhrDUYLbTPSg-48" target="77e6c97f196da883-8">
          <mxGeometry relative="1" as="geometry" />
        </mxCell>
        <mxCell id="yzK9PIs7VhrDUYLbTPSg-48" value="MCN管理员" style="shape=umlActor;verticalLabelPosition=bottom;verticalAlign=top;html=1;outlineConnect=0;" vertex="1" parent="77e6c97f196da883-2">
          <mxGeometry x="55" y="180" width="30" height="60" as="geometry" />
        </mxCell>
        <mxCell id="77e6c97f196da883-3" value="MCN提现系统" style="swimlane;html=1;startSize=20;" parent="77e6c97f196da883-1" vertex="1">
          <mxGeometry x="160" y="20" width="190" height="1510" as="geometry" />
        </mxCell>
        <mxCell id="yzK9PIs7VhrDUYLbTPSg-4" value="" style="edgeStyle=orthogonalEdgeStyle;rounded=0;orthogonalLoop=1;jettySize=auto;html=1;" edge="1" parent="77e6c97f196da883-3" source="77e6c97f196da883-11" target="yzK9PIs7VhrDUYLbTPSg-3">
          <mxGeometry relative="1" as="geometry" />
        </mxCell>
        <mxCell id="77e6c97f196da883-11" value="登陆" style="rounded=1;whiteSpace=wrap;html=1;shadow=0;labelBackgroundColor=none;strokeWidth=1;fontFamily=Verdana;fontSize=8;align=center;" parent="77e6c97f196da883-3" vertex="1">
          <mxGeometry x="30" y="180" width="100" height="60" as="geometry" />
        </mxCell>
        <mxCell id="yzK9PIs7VhrDUYLbTPSg-6" value="" style="edgeStyle=orthogonalEdgeStyle;rounded=0;orthogonalLoop=1;jettySize=auto;html=1;" edge="1" parent="77e6c97f196da883-3" source="yzK9PIs7VhrDUYLbTPSg-3" target="yzK9PIs7VhrDUYLbTPSg-5">
          <mxGeometry relative="1" as="geometry" />
        </mxCell>
        <mxCell id="yzK9PIs7VhrDUYLbTPSg-3" value="导入主播用户" style="rounded=1;whiteSpace=wrap;html=1;shadow=0;labelBackgroundColor=none;strokeWidth=1;fontFamily=Verdana;fontSize=8;align=center;" vertex="1" parent="77e6c97f196da883-3">
          <mxGeometry x="30" y="290" width="100" height="60" as="geometry" />
        </mxCell>
        <mxCell id="yzK9PIs7VhrDUYLbTPSg-28" value="" style="edgeStyle=orthogonalEdgeStyle;rounded=0;orthogonalLoop=1;jettySize=auto;html=1;" edge="1" parent="77e6c97f196da883-3" source="yzK9PIs7VhrDUYLbTPSg-5" target="yzK9PIs7VhrDUYLbTPSg-27">
          <mxGeometry relative="1" as="geometry" />
        </mxCell>
        <mxCell id="yzK9PIs7VhrDUYLbTPSg-5" value="录入或导入主播收益" style="rounded=1;whiteSpace=wrap;html=1;shadow=0;labelBackgroundColor=none;strokeWidth=1;fontFamily=Verdana;fontSize=8;align=center;" vertex="1" parent="77e6c97f196da883-3">
          <mxGeometry x="30" y="390" width="100" height="60" as="geometry" />
        </mxCell>
        <mxCell id="yzK9PIs7VhrDUYLbTPSg-31" value="" style="edgeStyle=orthogonalEdgeStyle;rounded=0;orthogonalLoop=1;jettySize=auto;html=1;" edge="1" parent="77e6c97f196da883-3" source="yzK9PIs7VhrDUYLbTPSg-27" target="yzK9PIs7VhrDUYLbTPSg-30">
          <mxGeometry relative="1" as="geometry" />
        </mxCell>
        <mxCell id="yzK9PIs7VhrDUYLbTPSg-27" value="审核提现" style="whiteSpace=wrap;html=1;fontSize=8;fontFamily=Verdana;rounded=1;shadow=0;labelBackgroundColor=none;strokeWidth=1;" vertex="1" parent="77e6c97f196da883-3">
          <mxGeometry x="20" y="1140" width="120" height="60" as="geometry" />
        </mxCell>
        <mxCell id="yzK9PIs7VhrDUYLbTPSg-30" value="获取提现结果" style="whiteSpace=wrap;html=1;fontSize=8;fontFamily=Verdana;rounded=1;shadow=0;labelBackgroundColor=none;strokeWidth=1;" vertex="1" parent="77e6c97f196da883-3">
          <mxGeometry x="20" y="1280" width="120" height="60" as="geometry" />
        </mxCell>
        <mxCell id="77e6c97f196da883-4" value="微信小程序" style="swimlane;html=1;startSize=20;" parent="77e6c97f196da883-1" vertex="1">
          <mxGeometry x="350" y="20" width="230" height="1510" as="geometry" />
        </mxCell>
        <mxCell id="yzK9PIs7VhrDUYLbTPSg-11" value="" style="edgeStyle=orthogonalEdgeStyle;rounded=0;orthogonalLoop=1;jettySize=auto;html=1;" edge="1" parent="77e6c97f196da883-4" source="yzK9PIs7VhrDUYLbTPSg-7" target="yzK9PIs7VhrDUYLbTPSg-10">
          <mxGeometry relative="1" as="geometry" />
        </mxCell>
        <mxCell id="yzK9PIs7VhrDUYLbTPSg-7" value="注册/登陆" style="rounded=1;whiteSpace=wrap;html=1;shadow=0;labelBackgroundColor=none;strokeWidth=1;fontFamily=Verdana;fontSize=8;align=center;" vertex="1" parent="77e6c97f196da883-4">
          <mxGeometry x="30" y="500" width="100" height="60" as="geometry" />
        </mxCell>
        <mxCell id="yzK9PIs7VhrDUYLbTPSg-13" value="" style="edgeStyle=orthogonalEdgeStyle;rounded=0;orthogonalLoop=1;jettySize=auto;html=1;" edge="1" parent="77e6c97f196da883-4" source="yzK9PIs7VhrDUYLbTPSg-10" target="yzK9PIs7VhrDUYLbTPSg-12">
          <mxGeometry relative="1" as="geometry" />
        </mxCell>
        <mxCell id="yzK9PIs7VhrDUYLbTPSg-14" value="否" style="edgeLabel;html=1;align=center;verticalAlign=middle;resizable=0;points=[];" vertex="1" connectable="0" parent="yzK9PIs7VhrDUYLbTPSg-13">
          <mxGeometry x="-0.1778" y="-4" relative="1" as="geometry">
            <mxPoint as="offset" />
          </mxGeometry>
        </mxCell>
        <mxCell id="yzK9PIs7VhrDUYLbTPSg-10" value="是否存在" style="rhombus;whiteSpace=wrap;html=1;fontSize=8;fontFamily=Verdana;rounded=1;shadow=0;labelBackgroundColor=none;strokeWidth=1;" vertex="1" parent="77e6c97f196da883-4">
          <mxGeometry x="40" y="600" width="80" height="80" as="geometry" />
        </mxCell>
        <mxCell id="yzK9PIs7VhrDUYLbTPSg-16" value="" style="edgeStyle=orthogonalEdgeStyle;rounded=0;orthogonalLoop=1;jettySize=auto;html=1;" edge="1" parent="77e6c97f196da883-4" source="yzK9PIs7VhrDUYLbTPSg-12" target="yzK9PIs7VhrDUYLbTPSg-15">
          <mxGeometry relative="1" as="geometry" />
        </mxCell>
        <mxCell id="yzK9PIs7VhrDUYLbTPSg-12" value="注册" style="whiteSpace=wrap;html=1;fontSize=8;fontFamily=Verdana;rounded=1;shadow=0;labelBackgroundColor=none;strokeWidth=1;" vertex="1" parent="77e6c97f196da883-4">
          <mxGeometry x="75" y="730" width="120" height="60" as="geometry" />
        </mxCell>
        <mxCell id="yzK9PIs7VhrDUYLbTPSg-20" value="" style="edgeStyle=orthogonalEdgeStyle;rounded=0;orthogonalLoop=1;jettySize=auto;html=1;entryX=0.5;entryY=0;entryDx=0;entryDy=0;" edge="1" parent="77e6c97f196da883-4" source="yzK9PIs7VhrDUYLbTPSg-15" target="yzK9PIs7VhrDUYLbTPSg-21">
          <mxGeometry relative="1" as="geometry">
            <mxPoint x="135" y="960" as="targetPoint" />
          </mxGeometry>
        </mxCell>
        <mxCell id="yzK9PIs7VhrDUYLbTPSg-15" value="登陆" style="whiteSpace=wrap;html=1;fontSize=8;fontFamily=Verdana;rounded=1;shadow=0;labelBackgroundColor=none;strokeWidth=1;" vertex="1" parent="77e6c97f196da883-4">
          <mxGeometry x="75" y="830" width="120" height="60" as="geometry" />
        </mxCell>
        <mxCell id="yzK9PIs7VhrDUYLbTPSg-23" value="" style="edgeStyle=orthogonalEdgeStyle;rounded=0;orthogonalLoop=1;jettySize=auto;html=1;" edge="1" parent="77e6c97f196da883-4" source="yzK9PIs7VhrDUYLbTPSg-21" target="yzK9PIs7VhrDUYLbTPSg-22">
          <mxGeometry relative="1" as="geometry" />
        </mxCell>
        <mxCell id="yzK9PIs7VhrDUYLbTPSg-21" value="完善个人信息" style="whiteSpace=wrap;html=1;fontSize=8;fontFamily=Verdana;rounded=1;shadow=0;labelBackgroundColor=none;strokeWidth=1;" vertex="1" parent="77e6c97f196da883-4">
          <mxGeometry x="75" y="930" width="120" height="60" as="geometry" />
        </mxCell>
        <mxCell id="yzK9PIs7VhrDUYLbTPSg-25" value="" style="edgeStyle=orthogonalEdgeStyle;rounded=0;orthogonalLoop=1;jettySize=auto;html=1;" edge="1" parent="77e6c97f196da883-4" source="yzK9PIs7VhrDUYLbTPSg-22" target="yzK9PIs7VhrDUYLbTPSg-24">
          <mxGeometry relative="1" as="geometry" />
        </mxCell>
        <mxCell id="yzK9PIs7VhrDUYLbTPSg-22" value="查询个人收益列表和总收益" style="whiteSpace=wrap;html=1;fontSize=8;fontFamily=Verdana;rounded=1;shadow=0;labelBackgroundColor=none;strokeWidth=1;" vertex="1" parent="77e6c97f196da883-4">
          <mxGeometry x="75" y="1030" width="120" height="60" as="geometry" />
        </mxCell>
        <mxCell id="yzK9PIs7VhrDUYLbTPSg-24" value="申请提现" style="whiteSpace=wrap;html=1;fontSize=8;fontFamily=Verdana;rounded=1;shadow=0;labelBackgroundColor=none;strokeWidth=1;" vertex="1" parent="77e6c97f196da883-4">
          <mxGeometry x="75" y="1140" width="120" height="60" as="geometry" />
        </mxCell>
        <mxCell id="yzK9PIs7VhrDUYLbTPSg-17" style="edgeStyle=orthogonalEdgeStyle;rounded=0;orthogonalLoop=1;jettySize=auto;html=1;exitX=0;exitY=0.5;exitDx=0;exitDy=0;entryX=-0.031;entryY=0.617;entryDx=0;entryDy=0;entryPerimeter=0;" edge="1" parent="77e6c97f196da883-4" source="yzK9PIs7VhrDUYLbTPSg-10" target="yzK9PIs7VhrDUYLbTPSg-15">
          <mxGeometry relative="1" as="geometry">
            <Array as="points">
              <mxPoint x="10" y="640" />
              <mxPoint x="10" y="867" />
            </Array>
          </mxGeometry>
        </mxCell>
        <mxCell id="yzK9PIs7VhrDUYLbTPSg-18" value="是" style="edgeLabel;html=1;align=center;verticalAlign=middle;resizable=0;points=[];" vertex="1" connectable="0" parent="yzK9PIs7VhrDUYLbTPSg-17">
          <mxGeometry x="-0.2148" relative="1" as="geometry">
            <mxPoint y="-13" as="offset" />
          </mxGeometry>
        </mxCell>
        <mxCell id="77e6c97f196da883-5" value="抖音开放平台" style="swimlane;html=1;startSize=20;" parent="77e6c97f196da883-1" vertex="1">
          <mxGeometry x="580" y="20" width="200" height="1510" as="geometry" />
        </mxCell>
        <mxCell id="yzK9PIs7VhrDUYLbTPSg-39" value="授权" style="rounded=1;whiteSpace=wrap;html=1;shadow=0;labelBackgroundColor=none;strokeWidth=1;fontFamily=Verdana;fontSize=8;align=center;" vertex="1" parent="77e6c97f196da883-5">
          <mxGeometry x="80" y="930" width="100" height="60" as="geometry" />
        </mxCell>
        <mxCell id="77e6c97f196da883-6" value="其他平添api" style="swimlane;html=1;startSize=20;" parent="77e6c97f196da883-1" vertex="1">
          <mxGeometry x="780" y="20" width="170" height="1510" as="geometry" />
        </mxCell>
        <mxCell id="yzK9PIs7VhrDUYLbTPSg-45" value="二要素验证" style="whiteSpace=wrap;html=1;fontSize=8;fontFamily=Verdana;rounded=1;shadow=0;labelBackgroundColor=none;strokeWidth=1;" vertex="1" parent="77e6c97f196da883-6">
          <mxGeometry x="25" y="730" width="120" height="60" as="geometry" />
        </mxCell>
        <mxCell id="yzK9PIs7VhrDUYLbTPSg-9" value="" style="edgeStyle=orthogonalEdgeStyle;rounded=0;orthogonalLoop=1;jettySize=auto;html=1;" edge="1" parent="77e6c97f196da883-1" source="yzK9PIs7VhrDUYLbTPSg-47" target="yzK9PIs7VhrDUYLbTPSg-7">
          <mxGeometry relative="1" as="geometry">
            <mxPoint x="120" y="550" as="sourcePoint" />
          </mxGeometry>
        </mxCell>
        <mxCell id="yzK9PIs7VhrDUYLbTPSg-29" style="edgeStyle=orthogonalEdgeStyle;rounded=0;orthogonalLoop=1;jettySize=auto;html=1;" edge="1" parent="77e6c97f196da883-1" source="yzK9PIs7VhrDUYLbTPSg-24" target="yzK9PIs7VhrDUYLbTPSg-27">
          <mxGeometry relative="1" as="geometry" />
        </mxCell>
        <mxCell id="yzK9PIs7VhrDUYLbTPSg-33" value="" style="edgeStyle=orthogonalEdgeStyle;rounded=0;orthogonalLoop=1;jettySize=auto;html=1;entryX=0;entryY=0.5;entryDx=0;entryDy=0;" edge="1" parent="77e6c97f196da883-1" source="yzK9PIs7VhrDUYLbTPSg-30" target="yzK9PIs7VhrDUYLbTPSg-35">
          <mxGeometry relative="1" as="geometry">
            <mxPoint x="770" y="1330" as="targetPoint" />
          </mxGeometry>
        </mxCell>
        <mxCell id="yzK9PIs7VhrDUYLbTPSg-34" value="税筹服务商" style="swimlane;html=1;startSize=20;" vertex="1" parent="77e6c97f196da883-1">
          <mxGeometry x="950" y="20" width="160" height="1510" as="geometry" />
        </mxCell>
        <mxCell id="yzK9PIs7VhrDUYLbTPSg-37" value="" style="edgeStyle=orthogonalEdgeStyle;rounded=0;orthogonalLoop=1;jettySize=auto;html=1;" edge="1" parent="yzK9PIs7VhrDUYLbTPSg-34" source="yzK9PIs7VhrDUYLbTPSg-35" target="yzK9PIs7VhrDUYLbTPSg-36">
          <mxGeometry relative="1" as="geometry" />
        </mxCell>
        <mxCell id="yzK9PIs7VhrDUYLbTPSg-35" value="创建结算单" style="whiteSpace=wrap;html=1;fontSize=8;fontFamily=Verdana;rounded=1;shadow=0;labelBackgroundColor=none;strokeWidth=1;" vertex="1" parent="yzK9PIs7VhrDUYLbTPSg-34">
          <mxGeometry x="20" y="1280" width="120" height="60" as="geometry" />
        </mxCell>
        <mxCell id="yzK9PIs7VhrDUYLbTPSg-36" value="转账" style="whiteSpace=wrap;html=1;fontSize=8;fontFamily=Verdana;rounded=1;shadow=0;labelBackgroundColor=none;strokeWidth=1;" vertex="1" parent="yzK9PIs7VhrDUYLbTPSg-34">
          <mxGeometry x="20" y="1420" width="120" height="60" as="geometry" />
        </mxCell>
        <mxCell id="yzK9PIs7VhrDUYLbTPSg-38" style="edgeStyle=orthogonalEdgeStyle;rounded=0;orthogonalLoop=1;jettySize=auto;html=1;entryX=0.5;entryY=1;entryDx=0;entryDy=0;" edge="1" parent="77e6c97f196da883-1" source="yzK9PIs7VhrDUYLbTPSg-36" target="yzK9PIs7VhrDUYLbTPSg-30">
          <mxGeometry relative="1" as="geometry" />
        </mxCell>
        <mxCell id="yzK9PIs7VhrDUYLbTPSg-41" style="edgeStyle=orthogonalEdgeStyle;rounded=0;orthogonalLoop=1;jettySize=auto;html=1;entryX=0;entryY=0.5;entryDx=0;entryDy=0;" edge="1" parent="77e6c97f196da883-1" source="yzK9PIs7VhrDUYLbTPSg-21" target="yzK9PIs7VhrDUYLbTPSg-39">
          <mxGeometry relative="1" as="geometry" />
        </mxCell>
        <mxCell id="yzK9PIs7VhrDUYLbTPSg-43" value="获取用户信息" style="edgeLabel;html=1;align=center;verticalAlign=middle;resizable=0;points=[];" vertex="1" connectable="0" parent="yzK9PIs7VhrDUYLbTPSg-41">
          <mxGeometry x="-0.3026" y="-1" relative="1" as="geometry">
            <mxPoint x="15" y="-1" as="offset" />
          </mxGeometry>
        </mxCell>
        <mxCell id="yzK9PIs7VhrDUYLbTPSg-46" value="" style="edgeStyle=orthogonalEdgeStyle;rounded=0;orthogonalLoop=1;jettySize=auto;html=1;" edge="1" parent="77e6c97f196da883-1" source="yzK9PIs7VhrDUYLbTPSg-12" target="yzK9PIs7VhrDUYLbTPSg-45">
          <mxGeometry relative="1" as="geometry" />
        </mxCell>
        <mxCell id="yzK9PIs7VhrDUYLbTPSg-50" style="edgeStyle=orthogonalEdgeStyle;rounded=0;orthogonalLoop=1;jettySize=auto;html=1;entryX=0;entryY=0.5;entryDx=0;entryDy=0;" edge="1" parent="77e6c97f196da883-1" source="yzK9PIs7VhrDUYLbTPSg-48" target="77e6c97f196da883-11">
          <mxGeometry relative="1" as="geometry" />
        </mxCell>
      </root>
    </mxGraphModel>
  </diagram>
</mxfile>
